<?xml version="1.0" encoding="UTF-8"?>
<!-- Created with Inkscape (http://www.inkscape.org/) -->
<svg width="40" height="40" version="1.1" viewBox="0 0 10.583333 10.583333" xmlns="http://www.w3.org/2000/svg" xmlns:cc="http://creativecommons.org/ns#" xmlns:dc="http://purl.org/dc/elements/1.1/" xmlns:osb="http://www.openswatchbook.org/uri/2009/osb" xmlns:rdf="http://www.w3.org/1999/02/22-rdf-syntax-ns#" xmlns:xlink="http://www.w3.org/1999/xlink">
 <defs>
  <linearGradient id="linearGradient5975" x1="10.015" x2="29.982" y1="19.998" y2="19.998" gradientUnits="userSpaceOnUse">
   <stop offset="0"/>
  </linearGradient>
 </defs>
 <metadata>
  <rdf:RDF>
   <cc:Work rdf:about="">
    <dc:format>image/svg+xml</dc:format>
    <dc:type rdf:resource="http://purl.org/dc/dcmitype/StillImage"/>
    <dc:title/>
   </cc:Work>
  </rdf:RDF>
 </metadata>
 <g transform="translate(-38.176 -156.77)">
  <g transform="matrix(.26458 0 0 .26458 37.117 155.71)">
   <path d="m24 4c-11.05 0-20 8.95-20 20s8.95 20 20 20 20-8.95 20-20-8.95-20-20-20zm10 27.17-2.83 2.83-7.17-7.17-7.17 7.17-2.83-2.83 7.17-7.17-7.17-7.17 2.83-2.83 7.17 7.17 7.17-7.17 2.83 2.83-7.17 7.17z" fill="#004750"/>
   <path d="m0 0h48v48h-48z" fill="none"/>
  </g>
  <path transform="matrix(.26458 0 0 .26458 38.176 156.77)" d="m11.416 28.58-1.4006-1.4006 3.5881-3.5882 3.5881-3.5882-3.5882-3.5882-3.5882-3.5882 1.4063-1.4062 1.4063-1.4062 3.577 3.577c1.9674 1.9673 3.587 3.577 3.5993 3.577 0.01225 0 1.6318-1.6095 3.5989-3.5766l3.5766-3.5766 1.3955 1.3947c0.76751 0.76706 1.3955 1.4047 1.3955 1.417 1e-5 0.01226-1.6096 1.632-3.577 3.5993l-3.577 3.577 3.5825 3.5826 3.5825 3.5826-1.4062 1.4063-1.4062 1.4063-3.5827-3.5826-3.5827-3.5826-3.5825 3.5826c-1.9704 1.9704-3.5876 3.5826-3.5937 3.5826-0.0062 0-0.6415-0.63029-1.4119-1.4006z" fill-opacity="0" stroke-width=".022321"/>
  <path transform="matrix(.26458 0 0 .26458 38.176 156.77)" d="m11.416 28.58-1.4006-1.4006 3.5881-3.5882 3.5881-3.5882-3.5882-3.5882-3.5882-3.5882 1.4063-1.4062 1.4063-1.4062 3.577 3.577c1.9674 1.9673 3.587 3.577 3.5993 3.577 0.01225 0 1.6318-1.6095 3.5989-3.5766l3.5766-3.5766 1.3955 1.3947c0.76751 0.76706 1.3955 1.4047 1.3955 1.417 1e-5 0.01226-1.6096 1.632-3.577 3.5993l-3.577 3.577 3.5825 3.5826 3.5825 3.5826-1.4062 1.4063-1.4062 1.4063-3.5827-3.5826-3.5827-3.5826-3.5825 3.5826c-1.9704 1.9704-3.5876 3.5826-3.5937 3.5826-0.0062 0-0.6415-0.63029-1.4119-1.4006z" fill="url(#linearGradient5975)" stroke-width=".022321"/>
  <g>
   <g>
    <path transform="matrix(.26458 0 0 .26458 38.176 156.77)" d="m11.427 28.569-1.3895-1.3895 3.5881-3.5882 3.5881-3.5882-3.5882-3.5882-3.5882-3.5882 1.3934-1.3933 1.3934-1.3933 3.5764 3.5641c1.967 1.9603 3.5887 3.5641 3.6037 3.5641 0.01506 0 1.6366-1.6039 3.6033-3.5641l3.5759-3.5641 1.3391 1.3376c0.73649 0.73566 1.3598 1.366 1.3851 1.4008l0.04601 0.06318-3.5795 3.581-3.5795 3.581 3.5823 3.5823 3.5823 3.5823-1.395 1.3951-1.395 1.3951-3.5715-3.5714c-1.9643-1.9643-3.5815-3.5714-3.5938-3.5714-0.01228 0-1.6294 1.6071-3.5937 3.5714s-3.5764 3.5714-3.5826 3.5714c-0.0062 0-0.63648-0.62527-1.4007-1.3895z" stroke-width=".022321"/>
    <g stroke-width=".044643">
     <path transform="matrix(.26458 0 0 .26458 38.176 156.77)" d="m11.435 28.564-1.3808-1.3814 3.5824-3.5826 3.5824-3.5826-3.5937-3.5935-3.5937-3.5935 1.3926-1.3931 1.3926-1.3931 3.5899 3.5752 3.5899 3.5752 1.1-1.0884c0.60501-0.59863 2.2261-2.2095 3.6025-3.5797l2.5025-2.4913 1.3725 1.388 1.3725 1.388-3.5751 3.6017-3.5751 3.6017 3.5697 3.5729 3.5697 3.5729-1.3841 1.4029-1.3841 1.4029-3.5765-3.5765-3.5765-3.5765-3.5995 3.566-3.5995 3.566z"/>
     <path transform="matrix(.26458 0 0 .26458 38.176 156.77)" d="m11.435 28.564-1.3808-1.3814 3.5824-3.5826 3.5824-3.5826-3.5937-3.5935-3.5937-3.5935 1.3921-1.3926 1.3921-1.3926 3.592 3.5732 3.592 3.5732 1.6118-1.6009c0.88651-0.88047 2.5058-2.4901 3.5984-3.5769l1.9866-1.976 1.3783 1.3848 1.3783 1.3848-2.815 2.8461c-1.5483 1.5653-3.158 3.1875-3.5772 3.6047l-0.76216 0.75863 3.5827 3.5829 3.5827 3.5829-1.395 1.395-1.395 1.395-3.5828-3.5826-3.5828-3.5826-0.93725 0.94064c-0.51549 0.51735-2.1339 2.1234-3.5964 3.5689l-2.6592 2.6283z"/>
     <path transform="matrix(.26458 0 0 .26458 38.176 156.77)" d="m11.435 28.564-1.3808-1.3814 3.5824-3.5826 3.5824-3.5826-3.5937-3.5935-3.5937-3.5935 1.3913-1.3918 1.3913-1.3918 3.5961 3.5687 3.5961 3.5687 2.1443-2.1327c1.1794-1.173 2.7972-2.7803 3.5952-3.5719l1.4509-1.4392 1.381 1.3808 1.381 1.3808-1.925 1.956c-1.0587 1.0758-2.6696 2.6992-3.5797 3.6076l-1.6548 1.6516 3.5826 3.5828 3.5826 3.5828-1.395 1.395-1.395 1.395-3.5828-3.5826-3.5828-3.5826-1.473 1.4762c-0.81017 0.81191-2.4286 2.4179-3.5965 3.5688l-2.1235 2.0926z"/>
     <path transform="matrix(.26458 0 0 .26458 38.176 156.77)" d="m11.435 28.564-1.3808-1.3814 3.5601-3.5603c1.958-1.9582 3.5601-3.5804 3.5601-3.6049 0-0.02455-1.6071-1.6517-3.5714-3.6158l-3.5714-3.5711 1.3913-1.3918 1.3913-1.3918 3.5951 3.5633 3.5951 3.5633 3.5941-3.5686 3.5941-3.5686 1.3829 1.3829 1.3829 1.3829-1.3 1.331c-0.71497 0.73206-2.3258 2.3555-3.5796 3.6077l-2.2797 2.2767 3.5825 3.5827 3.5825 3.5827-1.395 1.395-1.395 1.395-3.5827-3.5825-3.5827-3.5825-1.9641 1.9672c-1.0803 1.082-2.6987 2.6879-3.5965 3.5688l-1.6324 1.6016z"/>
     <path transform="matrix(.26458 0 0 .26458 38.176 156.77)" d="m11.436 28.566-1.379-1.3796 3.5583-3.5698c1.9571-1.9634 3.5583-3.5864 3.5583-3.6067 0-0.0203-1.6071-1.6439-3.5714-3.608l-3.5714-3.5711 1.3919-1.3924 1.3919-1.3924 3.5678 3.5351c1.9623 1.9443 3.5867 3.5421 3.6098 3.5506 0.02311 0.0085 1.6509-1.586 3.6174-3.5433l3.5754-3.5588 1.3863 1.3863 1.3863 1.3863-0.98742 1.0186c-0.54308 0.56021-2.1539 2.1837-3.5796 3.6077l-2.5922 2.5892 3.5825 3.5827 3.5825 3.5827-1.395 1.395-1.395 1.395-3.5827-3.5825-3.5827-3.5825-2.3659 2.369c-1.3013 1.3029-2.9197 2.9089-3.5965 3.5688l-1.2306 1.1998z"/>
    </g>
    <path transform="matrix(.26458 0 0 .26458 38.176 156.77)" d="m11.426 28.577-1.401-1.4004 3.571-3.5712c1.9641-1.9642 3.571-3.5809 3.571-3.5928 0-0.0309-0.34085-0.37514-3.827-3.8651l-3.1257-3.1291 2.8016 3.02e-4 2.8016 3.03e-4 1.6494 1.6355c0.90716 0.89953 1.8467 1.8271 2.0879 2.0613l0.43849 0.42578 0.09026-0.08375c0.34379-0.31898 1.1095-1.0687 2.4999-2.4478l1.6047-1.5916h5.5771l-0.04217 0.0513c-0.02319 0.02821-1.5876 1.602-3.4764 3.4974l-3.4342 3.4461 3.5815 3.5816 3.5815 3.5816-1.4008 1.4008-1.4008 1.4008-3.5829-3.5829-3.5829-3.5829-2.1032 2.0992c-1.1567 1.1546-2.7725 2.7667-3.5905 3.5826l-1.4874 1.4834z" stroke-width=".015784"/>
   </g>
   <path transform="matrix(.26458 0 0 .26458 38.176 156.77)" d="m11.426 28.577-1.401-1.4004 3.571-3.5712c1.9641-1.9642 3.571-3.5809 3.571-3.5928 0-0.0309-0.34085-0.37514-3.827-3.8651l-3.1257-3.1291 2.8016 3.02e-4 2.8016 3.03e-4 1.6494 1.6355c0.90716 0.89953 1.8467 1.8271 2.0879 2.0613l0.43849 0.42578 0.09026-0.08375c0.34379-0.31898 1.1095-1.0687 2.4999-2.4478l1.6047-1.5916h5.5771l-0.04217 0.0513c-0.02319 0.02821-1.5876 1.602-3.4764 3.4974l-3.4342 3.4461 3.5815 3.5816 3.5815 3.5816-1.4008 1.4008-1.4008 1.4008-3.5829-3.5829-3.5829-3.5829-2.1032 2.0992c-1.1567 1.1546-2.7725 2.7667-3.5905 3.5826l-1.4874 1.4834z" fill-opacity=".99286" stroke-width=".015784"/>
  </g>
  <g fill-opacity="0" stroke-width=".12627">
   <path transform="matrix(.26458 0 0 .26458 38.176 156.77)" d="m11.402 28.548-1.3853-1.3896 3.5656-3.5673 3.5656-3.5673-3.5355-3.5339c-1.9446-1.9436-3.5355-3.5901-3.5355-3.6588 0-0.1663 2.5476-2.7178 2.7136-2.7178 0.07129 0 1.3508 1.2255 2.8433 2.7232s3.1015 3.07 3.5754 3.4937l0.86172 0.77052 3.5592-3.5575 3.5592-3.5575 1.3559 1.3601c0.74575 0.74807 1.3559 1.4164 1.3559 1.4852 0 0.06878-1.591 1.7153-3.5355 3.6589l-3.5355 3.5339 3.5664 3.568 3.5663 3.568-1.4197 1.4197-1.4197 1.4197-3.568-3.5663-3.568-3.5664-3.5339 3.5355c-1.9436 1.9446-3.5636 3.5355-3.6 3.5355-0.03637 0-0.68952-0.62533-1.4514-1.3896z"/>
   <path transform="matrix(.26458 0 0 .26458 38.176 156.77)" d="m11.402 28.548-1.3853-1.3896 3.5656-3.5673 3.5656-3.5673-3.5355-3.5339c-1.9446-1.9436-3.5355-3.5901-3.5355-3.6588 0-0.1663 2.5476-2.7178 2.7136-2.7178 0.07129 0 1.3508 1.2255 2.8433 2.7232s3.1015 3.07 3.5754 3.4937l0.86172 0.77052 3.5592-3.5575 3.5592-3.5575 1.3559 1.3601c0.74575 0.74807 1.3559 1.4164 1.3559 1.4852 0 0.06878-1.591 1.7153-3.5355 3.6589l-3.5355 3.5339 3.5664 3.568 3.5663 3.568-1.4197 1.4197-1.4197 1.4197-3.568-3.5663-3.568-3.5664-3.5339 3.5355c-1.9436 1.9446-3.5636 3.5355-3.6 3.5355-0.03637 0-0.68952-0.62533-1.4514-1.3896z"/>
   <path transform="matrix(.26458 0 0 .26458 38.176 156.77)" d="m11.402 28.548-1.3853-1.3896 3.5656-3.5673 3.5656-3.5673-3.5355-3.5339c-1.9446-1.9436-3.5355-3.5901-3.5355-3.6588 0-0.1663 2.5476-2.7178 2.7136-2.7178 0.07129 0 1.3508 1.2255 2.8433 2.7232s3.1015 3.07 3.5754 3.4937l0.86172 0.77052 3.5592-3.5575 3.5592-3.5575 1.3559 1.3601c0.74575 0.74807 1.3559 1.4164 1.3559 1.4852 0 0.06878-1.591 1.7153-3.5355 3.6589l-3.5355 3.5339 3.5664 3.568 3.5663 3.568-1.4197 1.4197-1.4197 1.4197-3.568-3.5663-3.568-3.5664-3.5339 3.5355c-1.9436 1.9446-3.5636 3.5355-3.6 3.5355-0.03637 0-0.68952-0.62533-1.4514-1.3896z"/>
   <path transform="matrix(.26458 0 0 .26458 38.176 156.77)" d="m11.402 28.548-1.3853-1.3896 3.5656-3.5673 3.5656-3.5673-3.5355-3.5339c-1.9446-1.9436-3.5355-3.5901-3.5355-3.6588 0-0.1663 2.5476-2.7178 2.7136-2.7178 0.07129 0 1.3508 1.2255 2.8433 2.7232s3.1015 3.07 3.5754 3.4937l0.86172 0.77052 3.5592-3.5575 3.5592-3.5575 1.3559 1.3601c0.74575 0.74807 1.3559 1.4164 1.3559 1.4852 0 0.06878-1.591 1.7153-3.5355 3.6589l-3.5355 3.5339 3.5664 3.568 3.5663 3.568-1.4197 1.4197-1.4197 1.4197-3.568-3.5663-3.568-3.5664-3.5339 3.5355c-1.9436 1.9446-3.5636 3.5355-3.6 3.5355-0.03637 0-0.68952-0.62533-1.4514-1.3896z"/>
   <path transform="matrix(.26458 0 0 .26458 38.176 156.77)" d="m11.402 28.548-1.3853-1.3896 3.5656-3.5673 3.5656-3.5673-3.5355-3.5339c-1.9446-1.9436-3.5355-3.5901-3.5355-3.6588 0-0.1663 2.5476-2.7178 2.7136-2.7178 0.07129 0 1.3508 1.2255 2.8433 2.7232s3.1015 3.07 3.5754 3.4937l0.86172 0.77052 3.5592-3.5575 3.5592-3.5575 1.3559 1.3601c0.74575 0.74807 1.3559 1.4164 1.3559 1.4852 0 0.06878-1.591 1.7153-3.5355 3.6589l-3.5355 3.5339 3.5664 3.568 3.5663 3.568-1.4197 1.4197-1.4197 1.4197-3.568-3.5663-3.568-3.5664-3.5339 3.5355c-1.9436 1.9446-3.5636 3.5355-3.6 3.5355-0.03637 0-0.68952-0.62533-1.4514-1.3896z"/>
  </g>
  <path transform="matrix(.26458 0 0 .26458 38.176 156.77)" d="m11.419 28.562-1.395-1.395 3.5819-3.5821 3.5819-3.5821-3.5818-3.5836-3.5818-3.5836 1.4061-1.4056 1.4061-1.4056 3.0022 2.9911c1.6512 1.6451 3.2662 3.2497 3.5889 3.5658l0.58674 0.57468 3.5696-3.5549c1.9633-1.9552 3.5888-3.5549 3.6122-3.5549 0.04449 0 2.7041 2.704 2.7323 2.7779 0.0089 0.02329-1.5879 1.648-3.5485 3.6104l-3.5646 3.5681 3.582 3.5822 3.582 3.5822-1.4064 1.4059-1.4064 1.4059-3.5826-3.5824-3.5826-3.5824-3.5712 3.5714c-1.9642 1.9643-3.5814 3.5714-3.5937 3.5714-0.01238 0-0.65026-0.62775-1.4175-1.395z" fill-opacity=".99286" stroke-width=".044643"/>
  <path transform="matrix(.26458 0 0 .26458 38.176 156.77)" d="m11.419 28.562-1.395-1.395 3.5819-3.5821 3.5819-3.5821-3.5818-3.5836-3.5818-3.5836 1.4028-1.4023 1.4028-1.4023 3.558 3.5344c1.9569 1.9439 3.5858 3.5344 3.6198 3.5344 0.03398 0 1.6558-1.5871 3.604-3.5268 1.9482-1.9397 3.5636-3.5268 3.5896-3.5268 0.05046 0 2.6997 2.6943 2.7271 2.7735 0.0089 0.02573-1.5879 1.6524-3.5485 3.6149l-3.5646 3.5681 3.582 3.5822 3.582 3.5822-1.4064 1.4059-1.4064 1.4059-3.5826-3.5824-3.5826-3.5824-3.5712 3.5714c-1.9642 1.9643-3.5814 3.5714-3.5937 3.5714-0.01238 0-0.65026-0.62775-1.4175-1.395z" fill="#fff" stroke-width=".044643"/>
 </g>
</svg>
