<?xml version="1.0" encoding="UTF-8"?>
<!-- Created with Inkscape (http://www.inkscape.org/) -->
<svg width="8.9676mm" height="8.9998mm" version="1.1" viewBox="0 0 8.9676113 8.9997931" xmlns="http://www.w3.org/2000/svg" xmlns:cc="http://creativecommons.org/ns#" xmlns:dc="http://purl.org/dc/elements/1.1/" xmlns:rdf="http://www.w3.org/1999/02/22-rdf-syntax-ns#">
 <metadata>
  <rdf:RDF>
   <cc:Work rdf:about="">
    <dc:format>image/svg+xml</dc:format>
    <dc:type rdf:resource="http://purl.org/dc/dcmitype/StillImage"/>
    <dc:title/>
   </cc:Work>
  </rdf:RDF>
 </metadata>
 <g transform="translate(-86.49 -93.708)">
  <path d="m94.104 93.708h-6.2593c-0.74754 0-1.354 0.60642-1.354 1.3543v6.259c0 0.74789 0.60642 1.3543 1.354 1.3543h6.2593c0.74789 0 1.3543-0.60642 1.3543-1.3543v-6.259c0-0.74789-0.60642-1.3543-1.3543-1.3543" fill="#004750"/>
  <g transform="matrix(.35278 0 0 -.35278 94.061 96.608)">
   <path d="m0 0v3.302s-3.705 0.403-4.825-0.144c-1.12-0.545-2.729-1.293-2.786-4.652-0.058-3.36 0-2.607 0-2.607l-3.175-9e-3v-3.686h3.16v-9.495h3.828v9.487h3.178l0.488 3.685h-3.656v2.66s-0.134 1.504 1.627 1.504c1.762 0 2.161 0.02 2.161 0.02" fill="#fff"/>
  </g>
 </g>
</svg>
