<?xml version="1.0" encoding="UTF-8"?>
<!-- Created with Inkscape (http://www.inkscape.org/) -->
<svg width="23.621mm" height="29.369mm" version="1.1" viewBox="0 0 23.620941 29.36875" xmlns="http://www.w3.org/2000/svg" xmlns:cc="http://creativecommons.org/ns#" xmlns:dc="http://purl.org/dc/elements/1.1/" xmlns:rdf="http://www.w3.org/1999/02/22-rdf-syntax-ns#">
 <defs>
  <clipPath id="clipPath416">
   <path d="m311.71 1436.6h66.957v-83.25h-66.957z"/>
  </clipPath>
 </defs>
 <metadata>
  <rdf:RDF>
   <cc:Work rdf:about="">
    <dc:format>image/svg+xml</dc:format>
    <dc:type rdf:resource="http://purl.org/dc/dcmitype/StillImage"/>
    <dc:title/>
   </cc:Work>
  </rdf:RDF>
 </metadata>
 <g transform="translate(-58.493 -101.64)">
  <g transform="matrix(.35278 0 0 -.35278 -51.471 608.45)">
   <g clip-path="url(#clipPath416)">
    <g transform="translate(348.16 1425.1)">
     <path d="m0 0h-1.849v-27.637h27.638v27.637h-23.958zm-2.331 0.482h28.613v-28.603h-28.613z" style="fill:#e7e8e9"/>
    </g>
    <g transform="translate(370.23 1425.1)">
     <path d="m0 0h1.834l1.889-1.887v-1.849z" style="fill:#e7e8e9"/>
    </g>
    <g transform="translate(364.72 1425.1)">
     <path d="m0 0h1.836l7.398-7.403v-1.847z" style="fill:#e7e8e9"/>
    </g>
    <g transform="translate(359.19 1425.1)">
     <path d="m0 0h1.848l12.913-12.93v-1.831z" style="fill:#e7e8e9"/>
    </g>
    <g transform="translate(353.68 1425.1)">
     <path d="m0 0h1.832l18.44-18.44v-1.833z" style="fill:#e7e8e9"/>
    </g>
    <g transform="translate(373.95 1399.3)">
     <path d="m0 0-25.789 25.805h1.831l23.958-23.96v-2e-3z" style="fill:#e7e8e9"/>
    </g>
    <g transform="translate(373.95 1369.4)">
     <path d="m0 0h-15.123v2.181h-0.012l-0.017 0.548-0.067 0.562-0.091 0.537-0.12 0.549-0.174 0.522-0.201 0.524-0.229 0.492-0.264 0.494-0.311 0.459-0.334 0.453-0.363 0.414-0.386 0.402-0.406 0.359-0.437 0.347-0.469 0.311 4e-3 6e-3 -0.219 0.141 1.956 11.752h6.908l1.949-11.752-0.225-0.147-0.472-0.311-0.439-0.347-0.404-0.359-0.387-0.402-0.357-0.414-0.334-0.453-0.313-0.459-0.267-0.494-0.228-0.492-0.197-0.524-0.174-0.522-0.124-0.549-0.091-0.537-0.068-0.562-0.017-0.548v-1.029h12.503zm-12.676 11.283 0.096 0.198 0.052 0.205 0.025 0.198-0.012 0.213-0.036 0.202-0.083 0.201-0.092 0.183-0.131 0.167-0.165 0.13-0.189 0.124-0.184 0.075-0.2 0.057-0.218 0.014-0.215-0.014-0.196-0.057-0.188-0.075-0.189-0.124-0.16-0.13-0.137-0.167-0.092-0.183-0.078-0.201-0.041-0.202-0.014-0.213 0.027-0.198 0.051-0.205 0.095-0.198 0.123-0.178 0.142-0.145 0.164-0.132 0.189-0.096 0.198-0.066v-9.514h0.64v9.514l0.204 0.066 0.191 0.096 0.157 0.132 0.146 0.145z" style="fill:#e7e8e9"/>
    </g>
    <path d="m356.59 1393.7h7.085v-2.073h-7.085z" style="fill:#e7e8e9"/>
    <g transform="translate(346.32 1401.2)">
     <path d="m0 0 3.734-3.718h-1.843l-1.891 1.883z" style="fill:#e7e8e9"/>
    </g>
    <g transform="translate(346.32 1406.7)">
     <path d="m0 0 9.249-9.247h-1.833l-7.416 7.399z" style="fill:#e7e8e9"/>
    </g>
    <g transform="translate(346.32 1412.2)">
     <path d="m0 0 14.767-14.758h-1.837l-12.93 12.915z" style="fill:#e7e8e9"/>
    </g>
    <g transform="translate(346.32 1417.7)">
     <path d="m0 0 20.278-20.275h-1.833l-18.445 18.443z" style="fill:#e7e8e9"/>
    </g>
    <g transform="translate(346.32 1423.2)">
     <path d="m0 0 25.805-25.79h-1.848l-23.957 23.955z" style="fill:#e7e8e9"/>
    </g>
    <g transform="translate(373.95 1395.2)">
     <path d="m0 0h-27.638v-27.639h27.638v3.041zm-28.12 0.48h28.613v-28.598h-28.613z" style="fill:#e7e8e9"/>
    </g>
    <g transform="translate(323.76 1367.5)">
     <path d="M 0,0 20.278,20.274 V 18.439 L 1.853,0 Z" style="fill:#e7e8e9"/>
    </g>
    <g transform="translate(331.18 1395.2)">
     <path d="m0 0h-14.76v-27.639h27.622v27.639h-9.193zm13.359-28.118h-28.616v28.598h28.616z" style="fill:#e7e8e9"/>
    </g>
    <g transform="translate(342.16 1367.5)">
     <path d="m0 0h-1.836l3.721 3.734v-1.847z" style="fill:#e7e8e9"/>
    </g>
    <g transform="translate(331.55 1402)">
     <path d="m0 0-0.493-0.389h-0.01l-0.235 0.25 0.581 0.528 0.614 0.494 0.647 0.468 0.654 0.431 0.683 0.399 0.712 0.361 0.718 0.32 0.738 0.299 0.745 0.252v0.014l0.475 0.11 0.494 0.08 2.218 0.196v11.404h1.379v-12.85h-2.008l-1.468-0.131 1e-3 -0.017-0.616-0.026-0.632-0.079-0.614-0.106-0.615-0.136-0.603-0.174-0.604-0.212-0.589-0.228-0.566-0.279-0.54-0.298-0.552-0.33z" style="fill:#e7e8e9"/>
    </g>
    <g transform="translate(323.79 1406.2)">
     <path d="m0 0-0.561 0.134-0.563 0.079-0.016 0.014h-1e-3l-1.454 0.12v12.796h0.012l0.03 0.107 0.061 0.09 0.108 0.052 0.11 0.019 0.684-0.119 0.799-0.165 0.791-0.203 0.791-0.223 0.773-0.281 0.754-0.31 0.742-0.345 6e-3 0.013 2.703-1.354 0.425-8.762h0.486l0.428 8.762 2.705 1.354 7e-3 -0.013 0.738 0.345 0.75 0.31 0.775 0.281 0.793 0.223 0.786 0.203 0.804 0.165 0.68 0.119 0.112-0.019 0.108-0.052 0.068-0.09 0.023-0.107h0.013v-12.796l-1.458-0.12-0.013-0.014-0.563-0.079-0.56-0.134v-0.016l-0.709-0.237-0.714-0.268-0.68-0.297-0.668-0.336-0.669-0.357-0.63-0.404-0.628-0.416-0.604-0.454-0.574-0.468-0.562-0.509-0.563 0.509-0.572 0.468-0.607 0.454-0.63 0.416-0.628 0.404-0.665 0.357-0.67 0.336-0.685 0.297-0.708 0.268-0.71 0.237z" style="fill:#e7e8e9"/>
    </g>
    <g transform="translate(334.85 1395.2)">
     <path d="m0 0h1.848l-20.278-20.278v1.831z" style="fill:#e7e8e9"/>
    </g>
    <g transform="translate(334.81 1367.5)">
     <path d="m0 0 9.235 9.248v-1.846l-7.402-7.402z" style="fill:#e7e8e9"/>
    </g>
    <g transform="translate(331.18 1395.2)">
     <path d="m0 0-14.76-14.762v1.834l12.912 12.928z" style="fill:#e7e8e9"/>
    </g>
    <g transform="translate(331.13 1367.5)">
     <path d="m0 0h-1.833l14.747 14.763v-1.834z" style="fill:#e7e8e9"/>
    </g>
    <g transform="translate(325.65 1395.2)">
     <path d="m0 0-9.234-9.248v1.846l7.398 7.402z" style="fill:#e7e8e9"/>
    </g>
    <g transform="translate(329.4 1401.6)">
     <path d="m0 0-0.495 0.389-0.508 0.35-0.547 0.33-0.547 0.299-0.565 0.278-0.589 0.229-0.601 0.212-0.607 0.174-0.614 0.135-0.613 0.106-0.633 0.08-0.614 0.026 1e-3 0.017-1.473 0.13h-2.007v12.85h1.383v-11.403l2.221-0.197 0.489-0.08 0.47-0.109v-0.015l0.75-0.252 0.737-0.299 0.719-0.319 0.711-0.362 0.682-0.399 0.656-0.43 0.646-0.468 0.615-0.495 0.585-0.532 3e-3 -3e-3 -0.242-0.242h-0.012z" style="fill:#e7e8e9"/>
    </g>
    <g transform="translate(320.14 1395.2)">
     <path d="m0 0-3.722-3.722v1.833l1.888 1.889z" style="fill:#e7e8e9"/>
    </g>
    <g transform="translate(320.1 1367.5)">
     <path d="m0 0h-1.846l25.79 25.804v-1.846z" style="fill:#e7e8e9"/>
    </g>
    <g transform="translate(342.21 1395.2)">
     <path d="m0 0-25.792-25.788v1.834l23.956 23.954z" style="fill:#e7e8e9"/>
    </g>
    <path d="m344.54 1397h-28.616v28.603h28.616zm-0.498 28.12h-27.622v-27.637h27.622z" style="fill:#e7e8e9"/>
    <g transform="translate(311.71 1429.8)">
     <path d="m0 0h66.957v-64.79l-0.013-0.305-0.056-0.296-0.09-0.28-0.121-0.283-0.146-0.266-0.178-0.238-0.213-0.22-0.23-0.196-0.249-0.161-0.273-0.138-0.276-0.105-29.486-8.845-0.015 0.013-0.524-0.147-0.53-0.095-0.535-0.067-0.553-0.012-0.547 0.012-0.532 0.067-0.537 0.095-0.521 0.147-4e-3 -0.012-29.482 8.844-0.279 0.105-0.271 0.138-0.252 0.161-0.229 0.196-0.211 0.22-0.173 0.238-0.153 0.266-0.121 0.283-0.091 0.28-0.057 0.296-9e-3 0.305zm0.961-64.79h0.016l0.023-0.25 0.057-0.257 0.107-0.241 0.132-0.215 0.18-0.201 0.194-0.156 0.218-0.138 0.243-0.09 29.481-8.85 0.453-0.106 0.472-0.093 0.468-0.052 0.464-0.015 0.47 0.015 0.473 0.052 0.465 0.093 0.457 0.106h9e-3l29.489 8.85 0.235 0.09 0.219 0.138 0.199 0.156 0.176 0.201 0.131 0.215 0.107 0.241 0.056 0.257 0.025 0.25v63.815h-65.019z" style="fill:#e7e8e9"/>
    </g>
    <path d="m378.66 1433.1h-66.957v3.572h66.957z" style="fill:#e7e8e9"/>
   </g>
  </g>
 </g>
</svg>
