<?xml version="1.0" encoding="UTF-8"?>
<!-- Created with Inkscape (http://www.inkscape.org/) -->
<svg width="6.6659mm" height="6.6714mm" version="1.1" viewBox="0 0 6.6659431 6.6714253" xmlns="http://www.w3.org/2000/svg" xmlns:cc="http://creativecommons.org/ns#" xmlns:dc="http://purl.org/dc/elements/1.1/" xmlns:rdf="http://www.w3.org/1999/02/22-rdf-syntax-ns#">
 <metadata>
  <rdf:RDF>
   <cc:Work rdf:about="">
    <dc:format>image/svg+xml</dc:format>
    <dc:type rdf:resource="http://purl.org/dc/dcmitype/StillImage"/>
    <dc:title/>
   </cc:Work>
  </rdf:RDF>
 </metadata>
 <g transform="translate(-163.73 -226.38)">
  <path d="m170.26 232.34-1.7614-1.5198c-0.10054 0.1203-0.21131 0.23107-0.33231 0.33197l1.5201 1.7611c0.01 0.0102 0.0303 0.03 0.0402 0.0406 0.1711 0.14041 0.42298 0.13018 0.57362-0.0406 0.15134-0.17039 0.13123-0.43285-0.0402-0.57326" fill="#fff"/>
  <path d="m168.87 229c0 1.39-1.1268 2.5167-2.5164 2.5167-1.39 0-2.5167-1.1268-2.5167-2.5167 0-1.3896 1.1268-2.5164 2.5167-2.5164 1.3896 0 2.5164 1.1268 2.5164 2.5164z" fill="none" stroke="#fff" stroke-miterlimit="10" stroke-width=".2032"/>
 </g>
</svg>
