<?xml version="1.0" encoding="UTF-8"?>
<!-- Created with Inkscape (http://www.inkscape.org/) -->
<svg width="35.095mm" height="13mm" version="1.1" viewBox="0 0 35.095326 12.999995" xmlns="http://www.w3.org/2000/svg" xmlns:cc="http://creativecommons.org/ns#" xmlns:dc="http://purl.org/dc/elements/1.1/" xmlns:rdf="http://www.w3.org/1999/02/22-rdf-syntax-ns#">
 <defs>
  <clipPath id="clipPath552">
   <path d="m0 1474h1023.3v-1474h-1023.3z"/>
  </clipPath>
 </defs>
 <metadata>
  <rdf:RDF>
   <cc:Work rdf:about="">
    <dc:format>image/svg+xml</dc:format>
    <dc:type rdf:resource="http://purl.org/dc/dcmitype/StillImage"/>
    <dc:title/>
   </cc:Work>
  </rdf:RDF>
 </metadata>
 <g transform="translate(-134.16 -154.18)">
  <g transform="matrix(.35278 0 0 -.35278 -175.59 172.05)">
   <g clip-path="url(#clipPath552)">
    <path d="m1023.3 0h-1023.3v65.197h1023.3z" fill="#fff"/>
   </g>
  </g>
  <g transform="matrix(.35278 0 0 -.35278 136.14 158.13)">
   <path d="m0 0h-0.56v2.398s-0.022 1.705-1.839 1.831h-0.8s-1.68 0.015-1.83-1.831v-2.398s-0.018-1.145 1.06-1.658l2.582-1.213s1.366-0.605 1.377-2.178v-5.347s0.052-0.917-0.615-1.597c0 0-0.672-0.811-1.774-0.792h-0.8s-1.042-0.046-1.773 0.792c0 0-0.607 0.593-0.616 1.597l-0.011 2.399h0.56v-2.399s0.021-1.531 1.619-1.821h1.021s1.627-0.087 1.839 1.821v5.347s0.039 1.094-1.069 1.668l-2.582 1.214s-1.321 0.54-1.377 2.167l-0.011 2.398s-0.029 1.058 0.801 1.775c0 0 0.591 0.6 1.599 0.616 1.007 0.016 0.8 0 0.8 0s0.845 0.052 1.6-0.616c0 0 0.777-0.621 0.799-1.775z" fill="#595a5d"/>
  </g>
  <g transform="matrix(.35278 0 0 -.35278 136.84 154.18)">
   <path d="m0 0h0.56v-6.398h3.439v-0.559h-3.439l9e-3 -14.634s-0.011-1.698 1.831-1.83v-0.56s-0.996-0.077-1.774 0.792c0 0-0.585 0.53-0.626 1.598z" fill="#595a5d"/>
  </g>
  <g transform="matrix(.35278 0 0 -.35278 138.95 156.44)">
   <path d="m0 0h0.558v-15.193s-0.01-1.525 1.619-1.821h1.242s1.498 0.167 1.619 1.821v15.193h0.56v-15.193s3e-3 -0.944-0.628-1.598c0 0-0.524-0.678-1.521-0.781l-1.051-0.011s-1.044-0.045-1.772 0.792c0 0-0.587 0.541-0.618 1.598z" fill="#595a5d"/>
  </g>
  <g transform="matrix(.35278 0 0 -.35278 151.14 156.44)">
   <path d="m0 0h0.558v-15.193s-0.01-1.525 1.619-1.821h1.243s1.497 0.167 1.619 1.821v15.193h0.559v-15.193s3e-3 -0.944-0.627-1.598c0 0-0.524-0.678-1.521-0.781l-1.052-0.011s-1.044-0.045-1.772 0.792c0 0-0.586 0.541-0.618 1.598z" fill="#231f20"/>
  </g>
  <g transform="matrix(.35278 0 0 -.35278 143.41 161.8)">
   <path d="m0 0s-0.016-1.559-1.619-1.821h-1.243s-1.496 0.16-1.608 1.821l9e-3 13.016s0.168 1.52 1.821 1.609h0.8s1.693 0.015 1.84-1.831zm0.558 21.591h-0.558l-0.01-7.264c-0.063 0.084-0.23 0.241-0.23 0.241-0.712 0.647-1.6 0.616-1.6 0.616h-0.8c-0.974 7e-3 -1.599-0.616-1.599-0.616-0.745-0.674-0.782-1.523-0.782-1.523l-8e-3 -13.045c0-0.993 0.616-1.598 0.616-1.598 0.755-0.856 1.773-0.792 1.773-0.792h0.8c1.13-0.022 1.773 0.792 1.773 0.792 0.658 0.702 0.616 1.598 0.616 1.598z" fill="#595a5d"/>
  </g>
  <g transform="matrix(.35278 0 0 -.35278 154.02 157.28)">
   <path d="m0 0c0.148 1.846 1.841 1.831 1.841 1.831h0.8c1.651-0.089 1.821-1.609 1.821-1.609l0.01-13.016c-0.112-1.661-1.61-1.821-1.61-1.821h-1.242c-1.603 0.262-1.62 1.821-1.62 1.821zm-0.549-12.794s-0.041-0.895 0.617-1.598c0 0 0.642-0.814 1.773-0.792h0.8s1.017-0.064 1.772 0.792c0 0 0.616 0.605 0.616 1.598l-8e-3 13.045s-0.037 0.849-0.781 1.523c0 0-0.625 0.623-1.599 0.616h-0.8s-0.889 0.031-1.6-0.616c0 0-0.167-0.157-0.23-0.241l-0.011 7.264h-0.558z" fill="#231f20"/>
  </g>
  <path d="m144.51 155.03h-0.19719v-0.84632h0.19719z" fill="#595a5d"/>
  <path d="m144.51 162.64h-0.19719v-6.2029h0.19719z" fill="#595a5d"/>
  <g transform="matrix(.35278 0 0 -.35278 146.99 161.8)">
   <path d="m0 0s-0.018-1.559-1.62-1.82h-1.243s-1.496 0.158-1.608 1.82l0.01 13.016s0.168 1.519 1.82 1.609h0.799s1.694 0.015 1.842-1.83zm0.562 5e-3 -0.011 12.794c-0.01 1.159-0.79 1.774-0.79 1.774-0.744 0.678-1.598 0.616-1.598 0.616l-0.8 9e-3c-0.96 0.01-1.602-0.625-1.602-0.625-0.842-0.77-0.788-1.774-0.788-1.774l-0.01-12.794c0-0.966 0.627-1.598 0.627-1.598 0.698-0.762 1.521-0.781 1.521-0.781h1.302c0.967 0.096 1.521 0.781 1.521 0.781 0.665 0.713 0.628 1.598 0.628 1.598" fill="#595a5d"/>
  </g>
  <g transform="matrix(.35278 0 0 -.35278 147.89 154.18)">
   <path d="m0 0h2.158v-6.398h4.48v6.398h0.56v-23.981h-0.56v17.024h-4.48v-17.024h-2.158z" fill="#231f20"/>
  </g>
  <g transform="matrix(.35278 0 0 -.35278 163.48 157.45)">
   <path d="m0 0c0.047-0.235 0.244-0.241 0.244-0.241l1.28-0.108c0.171-0.014 0.252 0.132 0.252 0.132l5.268 9.011c-0.784 0.164-1.596 0.252-2.428 0.252-1.905 0-3.702-0.456-5.293-1.26z" fill="#231f20"/>
  </g>
  <g transform="matrix(.35278 0 0 -.35278 166.96 157.23)">
   <path d="m0 0c-0.083-0.125 0.069-0.172 0.069-0.172l6.144-0.584c-0.326 1.45-0.917 2.799-1.723 3.991z" fill="#231f20"/>
  </g>
  <g transform="matrix(.35278 0 0 -.35278 166.19 154.41)">
   <path d="m0 0-6.577-11.295c-0.112-0.198 0.075-0.355 0.075-0.355l1.165-0.801c0.162-0.066 0.265 0.024 0.265 0.024l11.376 8.185c-2.511 3.393-6.304 4.242-6.304 4.242" fill="#231f20"/>
  </g>
  <g transform="matrix(.35278 0 0 -.35278 169.2 157.73)">
   <path d="m0 0-6.944 0.658c-0.423 0.037-0.724-0.196-0.724-0.196l-9.354-6.737c-0.416-0.381-0.377-0.814-0.377-0.814v-5.057c1.713-0.977 3.695-1.537 5.81-1.537 6.489 0 11.75 5.261 11.75 11.749 0 0.66-0.057 1.307-0.161 1.934" fill="#231f20"/>
  </g>
  <g transform="matrix(.35278 0 0 -.35278 162.67 158.24)">
   <path d="m0 0c0.157-0.157 0.347-0.024 0.347-0.024l1.319 1c0.094 0.126 0.073 0.205 0.073 0.205l-0.744 8.491c-2.223-1.297-3.982-3.3-4.966-5.704z" fill="#231f20"/>
  </g>
  <g transform="matrix(.35278 0 0 -.35278 162.83 158.77)">
   <path d="m0 0c-0.031 0.176-0.112 0.273-0.112 0.273l-4.554 4.549c-0.404-1.187-0.627-2.46-0.627-3.786 0-4.105 2.107-7.718 5.298-9.818z" fill="#231f20"/>
  </g>
  <g transform="matrix(.35278 0 0 -.35278 156.64 166.57)">
   <path d="m0 0-1.259 7.394 0.598 3e-3 0.972-6.005 1.121 5.894h0.575l1.138-5.903 0.905 6.014h0.59l-1.197-7.397h-0.544l-1.174 6.108-1.164-6.108z" fill="#231f20"/>
  </g>
  <g transform="matrix(.35278 0 0 -.35278 158.85 165.48)">
   <path d="m0 0h1.476v0.437c0 0.183-3e-3 0.337-0.013 0.458-8e-3 0.123-0.027 0.245-0.055 0.365-0.029 0.121-0.069 0.214-0.118 0.283-0.052 0.068-0.121 0.124-0.21 0.165-0.089 0.042-0.196 0.062-0.321 0.062-0.283 0-0.48-0.097-0.592-0.294-0.111-0.197-0.167-0.57-0.167-1.12zm0.759-3.177c-0.506 0-0.871 0.156-1.093 0.468-0.224 0.312-0.335 0.846-0.335 1.603v1.334c0 0.513 0.052 0.921 0.158 1.224 0.106 0.301 0.26 0.513 0.464 0.636 0.204 0.122 0.473 0.183 0.809 0.183 0.223 0 0.414-0.03 0.571-0.087 0.159-0.059 0.29-0.142 0.394-0.248 0.104-0.108 0.186-0.252 0.247-0.436 0.061-0.183 0.103-0.385 0.127-0.606s0.036-0.489 0.036-0.801l-4e-3 -0.477h-2.133v-0.79c0-0.548 0.053-0.934 0.159-1.16 0.105-0.227 0.303-0.34 0.595-0.34 0.231 0 0.41 0.075 0.536 0.222 0.125 0.146 0.186 0.414 0.186 0.801v0.366h0.657v-0.295c0-0.512-0.107-0.906-0.321-1.183-0.215-0.275-0.566-0.414-1.053-0.414" fill="#231f20"/>
  </g>
  <g transform="matrix(.35278 0 0 -.35278 160.53 166.41)">
   <path d="m0 0c0.284 0 0.471 0.131 0.565 0.394 0.094 0.262 0.141 0.694 0.141 1.292v1.124c0 0.565-0.047 0.969-0.141 1.213-0.094 0.245-0.285 0.367-0.573 0.367-0.271 0-0.545-0.135-0.821-0.406v-3.601c0.244-0.256 0.52-0.383 0.829-0.383m0.113-0.531c-0.349 0-0.662 0.168-0.942 0.503v-0.419h-0.669v7.397h0.669v-2.553c0.28 0.346 0.615 0.519 1.008 0.519 0.196 0 0.368-0.04 0.516-0.12 0.147-0.081 0.262-0.185 0.347-0.312 0.085-0.13 0.154-0.288 0.206-0.478 0.052-0.191 0.085-0.378 0.102-0.564 0.017-0.187 0.024-0.398 0.024-0.632v-1.115c0-0.28-0.011-0.53-0.035-0.75-0.024-0.219-0.065-0.424-0.125-0.613-0.059-0.188-0.136-0.346-0.232-0.469-0.096-0.124-0.215-0.219-0.361-0.29s-0.315-0.104-0.508-0.104" fill="#231f20"/>
  </g>
  <g transform="matrix(.35278 0 0 -.35278 161.72 166.38)">
   <path d="m0 0h0.933c0.229 0 0.422 0.032 0.583 0.095 0.159 0.065 0.284 0.148 0.374 0.246 0.09 0.1 0.162 0.236 0.212 0.407 0.05 0.174 0.082 0.343 0.095 0.508 0.014 0.164 0.021 0.368 0.021 0.614v2.761c0 0.238-0.011 0.439-0.03 0.606s-0.056 0.324-0.11 0.471c-0.056 0.147-0.132 0.265-0.228 0.352-0.097 0.088-0.223 0.157-0.379 0.206-0.157 0.048-0.343 0.073-0.56 0.073h-0.911zm-0.7-0.522v7.397h1.619c0.301 0 0.566-0.035 0.797-0.103 0.23-0.069 0.422-0.164 0.573-0.285 0.152-0.123 0.275-0.275 0.371-0.46 0.095-0.184 0.163-0.383 0.203-0.597 0.039-0.215 0.061-0.456 0.061-0.728v-2.941c0-0.36-0.034-0.675-0.099-0.945-0.066-0.27-0.173-0.508-0.322-0.714s-0.35-0.359-0.604-0.466c-0.254-0.106-0.563-0.158-0.926-0.158z" fill="#231f20"/>
  </g>
  <g transform="matrix(.35278 0 0 -.35278 163.38 165.48)">
   <path d="m0 0h1.478v0.437c0 0.183-4e-3 0.337-0.014 0.458-8e-3 0.123-0.027 0.245-0.055 0.365-0.029 0.121-0.068 0.214-0.118 0.283-0.051 0.068-0.121 0.124-0.21 0.165-0.089 0.042-0.197 0.062-0.322 0.062-0.283 0-0.479-0.097-0.591-0.294-0.111-0.197-0.168-0.57-0.168-1.12zm0.759-3.177c-0.505 0-0.869 0.156-1.092 0.468s-0.335 0.846-0.335 1.603v1.334c0 0.513 0.052 0.921 0.158 1.224 0.106 0.301 0.26 0.513 0.464 0.636 0.204 0.122 0.474 0.183 0.81 0.183 0.223 0 0.413-0.03 0.571-0.087 0.158-0.059 0.289-0.142 0.393-0.248 0.104-0.108 0.186-0.252 0.247-0.436 0.061-0.183 0.104-0.385 0.127-0.606 0.024-0.221 0.036-0.489 0.036-0.801l-4e-3 -0.477h-2.134v-0.79c0-0.548 0.054-0.934 0.16-1.16 0.104-0.227 0.304-0.34 0.595-0.34 0.232 0 0.411 0.075 0.536 0.222 0.125 0.146 0.187 0.414 0.187 0.801v0.366h0.656v-0.295c0-0.512-0.107-0.906-0.321-1.183-0.214-0.275-0.565-0.414-1.054-0.414" fill="#231f20"/>
  </g>
  <g transform="matrix(.35278 0 0 -.35278 164.96 166.6)">
   <path d="m0 0c-0.42 0-0.755 0.135-1.007 0.406-0.251 0.271-0.394 0.636-0.43 1.097l0.562 0.17c0.036-0.402 0.128-0.697 0.276-0.886 0.15-0.189 0.358-0.284 0.625-0.284 0.232 0 0.415 0.068 0.549 0.205 0.128 0.132 0.192 0.308 0.192 0.527v0.032c-9e-3 0.35-0.223 0.7-0.642 1.052l-0.719 0.612c-0.253 0.211-0.437 0.418-0.553 0.62-0.113 0.197-0.169 0.425-0.169 0.687 0 0.387 0.116 0.685 0.348 0.897 0.226 0.208 0.531 0.312 0.914 0.312 0.39 0 0.689-0.126 0.899-0.376 0.21-0.249 0.327-0.587 0.35-1.011l-0.473-0.157c-0.02 0.354-0.093 0.617-0.216 0.787-0.123 0.172-0.301 0.256-0.533 0.256-0.208 0-0.375-0.056-0.5-0.173-0.121-0.113-0.183-0.265-0.183-0.455 0-0.172 0.032-0.32 0.094-0.443 0.063-0.125 0.177-0.257 0.344-0.4l0.745-0.669c0.133-0.116 0.243-0.217 0.327-0.306 0.085-0.088 0.176-0.196 0.27-0.325 0.096-0.13 0.166-0.27 0.212-0.419 0.047-0.152 0.071-0.312 0.074-0.485 0-0.405-0.122-0.718-0.366-0.94-0.244-0.221-0.574-0.331-0.99-0.331" fill="#231f20"/>
  </g>
  <path d="m165.81 164.7h0.23566v1.8637h-0.23566zm0-0.5775h0.23741v0.32138h-0.23741z" fill="#231f20"/>
  <g transform="matrix(.35278 0 0 -.35278 167.01 165.81)">
   <path d="m0 0c0.149 0 0.278 0.028 0.388 0.084 0.11 0.058 0.195 0.128 0.255 0.215 0.059 0.086 0.107 0.194 0.142 0.323 0.036 0.129 0.059 0.251 0.069 0.366 0.01 0.114 0.016 0.245 0.016 0.396 0 0.909-0.288 1.364-0.866 1.364-0.14 0-0.264-0.031-0.372-0.087-0.109-0.057-0.195-0.132-0.258-0.222-0.064-0.089-0.117-0.196-0.157-0.32-0.04-0.126-0.067-0.246-0.081-0.365-0.012-0.117-0.019-0.241-0.019-0.37 0-0.924 0.294-1.384 0.883-1.384m0.062-3.338c0.346 0 0.618 0.055 0.819 0.167s0.302 0.281 0.302 0.507c0 0.194-0.07 0.343-0.206 0.451-0.137 0.107-0.4 0.195-0.79 0.268l-0.678 0.089c-0.446-0.277-0.669-0.579-0.669-0.906 0-0.202 0.095-0.348 0.285-0.439 0.191-0.091 0.504-0.137 0.937-0.137m9e-3 -0.534c-0.279 0-0.525 0.014-0.738 0.044s-0.4 0.078-0.564 0.146c-0.164 0.069-0.289 0.162-0.375 0.279-0.086 0.118-0.129 0.259-0.129 0.423 0 0.254 0.085 0.489 0.254 0.701 0.169 0.215 0.377 0.383 0.62 0.511-0.161 0.045-0.299 0.111-0.414 0.195-0.117 0.085-0.175 0.177-0.175 0.275 0 0.279 0.21 0.634 0.63 1.066-0.441 0.32-0.661 0.859-0.661 1.616 0 0.255 0.03 0.491 0.089 0.711 0.059 0.218 0.148 0.413 0.266 0.584 0.117 0.171 0.271 0.305 0.461 0.401 0.19 0.097 0.409 0.146 0.656 0.146 0.532 0 0.912-0.219 1.138-0.657 0.056 0.099 0.151 0.204 0.286 0.32 0.133 0.115 0.275 0.204 0.428 0.269l0.138 0.059 0.178-0.469c-0.145-0.036-0.308-0.1-0.488-0.193-0.18-0.091-0.308-0.181-0.381-0.266 0.044-0.107 0.084-0.256 0.118-0.448 0.033-0.189 0.051-0.35 0.051-0.476 0-0.569-0.117-1.018-0.351-1.349-0.233-0.332-0.602-0.498-1.108-0.498-0.08 0-0.179 0.01-0.294 0.028-0.116 0.02-0.197 0.038-0.241 0.056-9e-3 -0.014-0.043-0.065-0.101-0.151s-0.101-0.152-0.13-0.199c-0.027-0.045-0.057-0.103-0.086-0.169-0.03-0.067-0.045-0.123-0.045-0.167 0-0.087 0.147-0.155 0.442-0.201 0.062-0.018 0.211-0.045 0.446-0.078 0.235-0.035 0.369-0.056 0.402-0.065 0.434-0.078 0.762-0.214 0.986-0.406 0.223-0.193 0.334-0.464 0.334-0.812 0-0.42-0.148-0.728-0.442-0.929-0.294-0.197-0.694-0.297-1.2-0.297" fill="#231f20"/>
  </g>
  <g transform="matrix(.35278 0 0 -.35278 168 166.57)">
   <path d="m0 0v5.283h0.669v-0.549c0.39 0.419 0.814 0.629 1.271 0.629 0.263 0 0.463-0.096 0.603-0.293 0.14-0.195 0.21-0.471 0.21-0.831v-4.239h-0.67v4.097c0 0.266-0.04 0.457-0.121 0.57-0.083 0.112-0.21 0.17-0.382 0.17-0.289 0-0.592-0.164-0.911-0.487v-4.35z" fill="#231f20"/>
  </g>
 </g>
</svg>
